<svg width="279" height="80" viewBox="0 0 279 80" fill="none" xmlns="http://www.w3.org/2000/svg">
<g clip-path="url(#clip0_328_15)">
<g filter="url(#filter0_d_328_15)">
<path d="M12.8878 52V34.5455H19.1605V52H12.8878ZM16.0241 32.7273C15.1757 32.7273 14.4484 32.447 13.8423 31.8864C13.2363 31.3258 12.9332 30.6515 12.9332 29.8636C12.9332 29.0758 13.2363 28.4015 13.8423 27.8409C14.4484 27.2803 15.1757 27 16.0241 27C16.8802 27 17.6075 27.2803 18.206 27.8409C18.812 28.4015 19.1151 29.0758 19.1151 29.8636C19.1151 30.6515 18.812 31.3258 18.206 31.8864C17.6075 32.447 16.8802 32.7273 16.0241 32.7273ZM33.6747 44.3636V34.5455H39.9474V52H33.9929V48.6818H33.8111C33.4323 49.7955 32.7694 50.6667 31.8224 51.2955C30.8755 51.9167 29.7505 52.2273 28.4474 52.2273C27.2277 52.2273 26.1596 51.947 25.2429 51.3864C24.3338 50.8258 23.6255 50.053 23.1179 49.0682C22.6179 48.0833 22.3641 46.9545 22.3565 45.6818V34.5455H28.6293V44.3636C28.6368 45.2273 28.8565 45.9053 29.2884 46.3977C29.7277 46.8902 30.3414 47.1364 31.1293 47.1364C31.652 47.1364 32.1027 47.0265 32.4815 46.8068C32.8679 46.5795 33.1634 46.2614 33.3679 45.8523C33.58 45.4356 33.6823 44.9394 33.6747 44.3636ZM59.0923 40.2273H53.3196C53.2893 39.8712 53.1643 39.5644 52.9446 39.3068C52.7249 39.0492 52.4408 38.8523 52.0923 38.7159C51.7514 38.572 51.3726 38.5 50.956 38.5C50.4181 38.5 49.956 38.5985 49.5696 38.7955C49.1832 38.9924 48.9938 39.2727 49.0014 39.6364C48.9938 39.8939 49.1037 40.1326 49.331 40.3523C49.5658 40.572 50.0166 40.7424 50.6832 40.8636L54.2287 41.5C56.0166 41.8258 57.3461 42.375 58.2173 43.1477C59.0961 43.9129 59.5393 44.9394 59.5469 46.2273C59.5393 47.4697 59.1681 48.5492 58.4332 49.4659C57.706 50.375 56.7098 51.0795 55.4446 51.5795C54.187 52.072 52.7514 52.3182 51.1378 52.3182C48.4711 52.3182 46.384 51.7727 44.8764 50.6818C43.3764 49.5909 42.5393 48.1515 42.3651 46.3636H48.5923C48.6757 46.9167 48.9484 47.3447 49.4105 47.6477C49.8802 47.9432 50.4711 48.0909 51.1832 48.0909C51.759 48.0909 52.2325 47.9924 52.6037 47.7955C52.9825 47.5985 53.1757 47.3182 53.1832 46.9545C53.1757 46.6212 53.009 46.3561 52.6832 46.1591C52.3651 45.9621 51.8651 45.803 51.1832 45.6818L48.0923 45.1364C46.312 44.8258 44.9787 44.2348 44.0923 43.3636C43.206 42.4924 42.7666 41.3712 42.7741 40C42.7666 38.7879 43.0848 37.7614 43.7287 36.9205C44.3802 36.072 45.3082 35.428 46.5128 34.9886C47.7249 34.5417 49.1605 34.3182 50.8196 34.3182C53.3423 34.3182 55.331 34.8409 56.7855 35.8864C58.2476 36.9318 59.0166 38.3788 59.0923 40.2273ZM70.3139 52.3182C68.4503 52.3182 66.8442 51.9621 65.4957 51.25C64.1548 50.5303 63.1207 49.5 62.3935 48.1591C61.6738 46.8106 61.3139 45.197 61.3139 43.3182C61.3139 41.5152 61.6776 39.9394 62.4048 38.5909C63.1321 37.2424 64.1586 36.1932 65.4844 35.4432C66.8101 34.6932 68.3745 34.3182 70.1776 34.3182C71.4957 34.3182 72.6889 34.5227 73.7571 34.9318C74.8253 35.3409 75.7382 35.9356 76.4957 36.7159C77.2533 37.4886 77.8366 38.428 78.2457 39.5341C78.6548 40.6402 78.8594 41.8864 78.8594 43.2727V44.7273H63.2685V41.2727H73.0866C73.0791 40.7727 72.9503 40.3333 72.7003 39.9545C72.4579 39.5682 72.1283 39.2689 71.7116 39.0568C71.3026 38.8371 70.8366 38.7273 70.3139 38.7273C69.8063 38.7273 69.3404 38.8371 68.9162 39.0568C68.492 39.2689 68.151 39.5644 67.8935 39.9432C67.6435 40.322 67.5109 40.7652 67.4957 41.2727V45C67.4957 45.5606 67.6132 46.0606 67.848 46.5C68.0829 46.9394 68.42 47.2841 68.8594 47.5341C69.2988 47.7841 69.8291 47.9091 70.4503 47.9091C70.8821 47.9091 71.276 47.8485 71.6321 47.7273C71.9957 47.6061 72.3063 47.4318 72.5639 47.2045C72.8215 46.9697 73.0109 46.6894 73.1321 46.3636H78.8594C78.6624 47.5758 78.1965 48.6288 77.4616 49.5227C76.7268 50.4091 75.7533 51.0985 74.5412 51.5909C73.3366 52.0758 71.9276 52.3182 70.3139 52.3182ZM87.6918 28.7273V52H81.419V28.7273H87.6918ZM90.8878 52V34.5455H97.1605V52H90.8878ZM94.0241 32.7273C93.1757 32.7273 92.4484 32.447 91.8423 31.8864C91.2363 31.3258 90.9332 30.6515 90.9332 29.8636C90.9332 29.0758 91.2363 28.4015 91.8423 27.8409C92.4484 27.2803 93.1757 27 94.0241 27C94.8802 27 95.6075 27.2803 96.206 27.8409C96.812 28.4015 97.1151 29.0758 97.1151 29.8636C97.1151 30.6515 96.812 31.3258 96.206 31.8864C95.6075 32.447 94.8802 32.7273 94.0241 32.7273ZM106.629 42.1818V52H100.357V34.5455H106.311V37.8636H106.493C106.872 36.7576 107.538 35.8902 108.493 35.2614C109.455 34.6326 110.576 34.3182 111.857 34.3182C113.091 34.3182 114.163 34.6023 115.072 35.1705C115.989 35.7311 116.697 36.5038 117.197 37.4886C117.705 38.4735 117.955 39.5985 117.947 40.8636V52H111.675V42.1818C111.682 41.3182 111.463 40.6402 111.016 40.1477C110.576 39.6553 109.963 39.4091 109.175 39.4091C108.66 39.4091 108.209 39.5227 107.822 39.75C107.444 39.9697 107.152 40.2879 106.947 40.7045C106.743 41.1136 106.637 41.6061 106.629 42.1818ZM132.362 44.3636V34.5455H138.635V52H132.68V48.6818H132.499C132.12 49.7955 131.457 50.6667 130.51 51.2955C129.563 51.9167 128.438 52.2273 127.135 52.2273C125.915 52.2273 124.847 51.947 123.93 51.3864C123.021 50.8258 122.313 50.053 121.805 49.0682C121.305 48.0833 121.052 46.9545 121.044 45.6818V34.5455H127.317V44.3636C127.324 45.2273 127.544 45.9053 127.976 46.3977C128.415 46.8902 129.029 47.1364 129.817 47.1364C130.339 47.1364 130.79 47.0265 131.169 46.8068C131.555 46.5795 131.851 46.2614 132.055 45.8523C132.268 45.4356 132.37 44.9394 132.362 44.3636ZM147.234 34.5455L149.78 39.9545L152.462 34.5455H158.689L154.007 43.2727L158.916 52H152.734L149.78 46.4545L146.916 52H140.643L145.598 43.2727L140.962 34.5455H147.234ZM160.828 52V28.7273H167.101V37.5909H167.192C167.419 37 167.752 36.4583 168.192 35.9659C168.631 35.4659 169.177 35.0682 169.828 34.7727C170.48 34.4697 171.237 34.3182 172.101 34.3182C173.252 34.3182 174.347 34.625 175.385 35.2386C176.43 35.8523 177.279 36.8182 177.93 38.1364C178.589 39.4545 178.919 41.1667 178.919 43.2727C178.919 45.2879 178.605 46.9583 177.976 48.2841C177.355 49.6098 176.521 50.5985 175.476 51.25C174.438 51.9015 173.298 52.2273 172.055 52.2273C171.237 52.2273 170.506 52.0947 169.862 51.8295C169.226 51.5568 168.68 51.1894 168.226 50.7273C167.779 50.2576 167.434 49.7273 167.192 49.1364H167.055V52H160.828ZM166.964 43.2727C166.964 44.1212 167.074 44.8561 167.294 45.4773C167.521 46.0909 167.839 46.5682 168.249 46.9091C168.665 47.2424 169.161 47.4091 169.737 47.4091C170.313 47.4091 170.802 47.2462 171.203 46.9205C171.612 46.5871 171.923 46.1136 172.135 45.5C172.355 44.8788 172.464 44.1364 172.464 43.2727C172.464 42.4091 172.355 41.6705 172.135 41.0568C171.923 40.4356 171.612 39.9621 171.203 39.6364C170.802 39.303 170.313 39.1364 169.737 39.1364C169.161 39.1364 168.665 39.303 168.249 39.6364C167.839 39.9621 167.521 40.4356 167.294 41.0568C167.074 41.6705 166.964 42.4091 166.964 43.2727ZM191.953 34.5455V39.0909H180.453V34.5455H191.953ZM182.68 30.3636H188.953V46.3864C188.953 46.6288 188.995 46.8333 189.078 47C189.161 47.1591 189.29 47.2803 189.464 47.3636C189.639 47.4394 189.862 47.4773 190.135 47.4773C190.324 47.4773 190.544 47.4545 190.794 47.4091C191.052 47.3636 191.241 47.3258 191.362 47.2955L192.271 51.7045C191.991 51.7879 191.589 51.8902 191.067 52.0114C190.552 52.1326 189.938 52.2121 189.226 52.25C187.786 52.3258 186.578 52.178 185.601 51.8068C184.624 51.428 183.889 50.8333 183.396 50.0227C182.904 49.2121 182.665 48.197 182.68 46.9773V30.3636ZM197.604 52L193.24 34.5455H199.513L201.513 45.1818H201.649L203.876 34.5455H209.967L212.286 45.0909H212.422L214.331 34.5455H220.604L216.24 52H209.467L207.013 42.6364H206.831L204.376 52H197.604ZM244.967 40.3636C244.967 42.9545 244.464 45.1402 243.456 46.9205C242.448 48.6932 241.089 50.0379 239.376 50.9545C237.664 51.8636 235.755 52.3182 233.649 52.3182C231.528 52.3182 229.611 51.8598 227.899 50.9432C226.195 50.0189 224.839 48.6705 223.831 46.8977C222.831 45.1174 222.331 42.9394 222.331 40.3636C222.331 37.7727 222.831 35.5909 223.831 33.8182C224.839 32.0379 226.195 30.6932 227.899 29.7841C229.611 28.8674 231.528 28.4091 233.649 28.4091C235.755 28.4091 237.664 28.8674 239.376 29.7841C241.089 30.6932 242.448 32.0379 243.456 33.8182C244.464 35.5909 244.967 37.7727 244.967 40.3636ZM238.467 40.3636C238.467 38.9697 238.282 37.7955 237.911 36.8409C237.547 35.8788 237.005 35.1515 236.286 34.6591C235.573 34.1591 234.695 33.9091 233.649 33.9091C232.604 33.9091 231.721 34.1591 231.001 34.6591C230.289 35.1515 229.748 35.8788 229.376 36.8409C229.013 37.7955 228.831 38.9697 228.831 40.3636C228.831 41.7576 229.013 42.9356 229.376 43.8977C229.748 44.8523 230.289 45.5795 231.001 46.0795C231.721 46.572 232.604 46.8182 233.649 46.8182C234.695 46.8182 235.573 46.572 236.286 46.0795C237.005 45.5795 237.547 44.8523 237.911 43.8977C238.282 42.9356 238.467 41.7576 238.467 40.3636ZM260.436 36C260.375 35.2424 260.091 34.6515 259.584 34.2273C259.084 33.803 258.322 33.5909 257.3 33.5909C256.648 33.5909 256.114 33.6705 255.697 33.8295C255.288 33.9811 254.985 34.1894 254.788 34.4545C254.591 34.7197 254.489 35.0227 254.482 35.3636C254.466 35.6439 254.516 35.8977 254.629 36.125C254.75 36.3447 254.94 36.5455 255.197 36.7273C255.455 36.9015 255.785 37.0606 256.186 37.2045C256.588 37.3485 257.065 37.4773 257.618 37.5909L259.527 38C260.815 38.2727 261.917 38.6326 262.834 39.0795C263.75 39.5265 264.5 40.053 265.084 40.6591C265.667 41.2576 266.095 41.9318 266.368 42.6818C266.648 43.4318 266.792 44.25 266.8 45.1364C266.792 46.6667 266.41 47.9621 265.652 49.0227C264.894 50.0833 263.811 50.8902 262.402 51.4432C261 51.9962 259.315 52.2727 257.345 52.2727C255.322 52.2727 253.557 51.9735 252.05 51.375C250.55 50.7765 249.383 49.8561 248.55 48.6136C247.724 47.3636 247.307 45.7652 247.3 43.8182H253.3C253.338 44.5303 253.516 45.1288 253.834 45.6136C254.152 46.0985 254.599 46.4659 255.175 46.7159C255.758 46.9659 256.451 47.0909 257.254 47.0909C257.929 47.0909 258.493 47.0076 258.947 46.8409C259.402 46.6742 259.747 46.4432 259.982 46.1477C260.216 45.8523 260.338 45.5152 260.345 45.1364C260.338 44.7803 260.22 44.4697 259.993 44.2045C259.773 43.9318 259.41 43.6894 258.902 43.4773C258.394 43.2576 257.709 43.053 256.845 42.8636L254.527 42.3636C252.466 41.9167 250.841 41.1705 249.652 40.125C248.47 39.072 247.883 37.6364 247.891 35.8182C247.883 34.3409 248.277 33.0492 249.072 31.9432C249.875 30.8295 250.985 29.9621 252.402 29.3409C253.826 28.7197 255.459 28.4091 257.3 28.4091C259.179 28.4091 260.804 28.7235 262.175 29.3523C263.546 29.9811 264.603 30.8674 265.345 32.0114C266.095 33.1477 266.474 34.4773 266.482 36H260.436Z" fill="url(#paint0_linear_328_15)"/>
</g>
</g>
<defs>
<filter id="filter0_d_328_15" x="8.88782" y="23" width="261.912" height="33.3638" filterUnits="userSpaceOnUse" color-interpolation-filters="sRGB">
<feFlood flood-opacity="0" result="BackgroundImageFix"/>
<feColorMatrix in="SourceAlpha" type="matrix" values="0 0 0 0 0 0 0 0 0 0 0 0 0 0 0 0 0 0 127 0" result="hardAlpha"/>
<feOffset/>
<feGaussianBlur stdDeviation="2"/>
<feComposite in2="hardAlpha" operator="out"/>
<feColorMatrix type="matrix" values="0 0 0 0 0 0 0 0 0 0 0 0 0 0 0 0 0 0 0.25 0"/>
<feBlend mode="normal" in2="BackgroundImageFix" result="effect1_dropShadow_328_15"/>
<feBlend mode="normal" in="SourceGraphic" in2="effect1_dropShadow_328_15" result="shape"/>
</filter>
<linearGradient id="paint0_linear_328_15" x1="139.5" y1="0" x2="139.5" y2="80" gradientUnits="userSpaceOnUse">
<stop/>
<stop offset="1" stop-color="#666666"/>
</linearGradient>
<clipPath id="clip0_328_15">
<rect width="279" height="80" fill="white"/>
</clipPath>
</defs>
</svg>
